# xmcd CD database file
#
# Track frame offsets:
#	150
#	15206
#	30920
#	45863
#	60184
#	75736
#	90999
#	104782
#	118796
#	134214
#	147809
#	162702
#	181566
#	192331
#	207118
#	222751
#	238597
#	249062
#	266714
#	279314
#	294849
#	309077
#	322101
#	333381
#	345449
#
# Disc length: 4794 seconds
#
# Revision: 1
# Processed by: cddbd v1.5.1PL0 Copyright (c) Steve Scherf et al.
# Submitted via: CDex 1.50
#
DISCID=5012b819
DTITLE=Sonstige - Die schönsten Country and Trucker Hits CD2
DYEAR=1900
DGENRE=Country
TTITLE0=Nancy Wood-Asphalt Cowboy
TTITLE1=Samys saloon-Mich ruft die Autobahn
TTITLE2=Ulla Norden-Du nimmst mich so wie ich bin
TTITLE3=Eddy Toledo-Ich trinke keinen Tropfen mehr
TTITLE4=Graham Boney-Ich hab noch viel vor in meinen Leben
TTITLE5=Trucker Bill&Country Band-Please Release me
TTITLE6=mel Jersy-Liebe ist...
TTITLE7=Tennessee-Mein Pferd Gerd
TTITLE8=Weast Forrest Country Boys-Ich wollt auf`m echten Zug
TTITLE9=Ron David-Ein Bett im Kornfeld
TTITLE10=Holger Stern-Bis ans Ende der Welt
TTITLE11=Gunter Gabriel-Er ist ein Kerl
TTITLE12=Tom Astor-Ja,das sind Stunden
TTITLE13=Peter Hinnen-Ein richtiger Cowboy
TTITLE14=eddie Williams-So weit von zu Haus
TTITLE15=sasja Velt-Ich kann nicht lachen,wenn Du traurig bist
TTITLE16=Peter Held-Die schönste Frau von Texas
TTITLE17=Ane Karin-Zum ersten Mal in meinen Leben
TTITLE18=Jonny Hill-500Meilen von zu Haus
TTITLE19=Roxy Rose-Lass mich damit bloss in Ruhe
TTITLE20=Jan Hayston-Unter uns gibts doch noch Engel
TTITLE21=Andy Williams-mein Cowboy reite nicht zu weit
TTITLE22=Ralf Paulsen-Goodbay Highways
TTITLE23=Gaby Nelson-Lebe Wohl
TTITLE24=Truckstop Brothers-Cowboys gibts überall
EXTD=
EXTT0=
EXTT1=
EXTT2=
EXTT3=
EXTT4=
EXTT5=
EXTT6=
EXTT7=
EXTT8=
EXTT9=
EXTT10=
EXTT11=
EXTT12=
EXTT13=
EXTT14=
EXTT15=
EXTT16=
EXTT17=
EXTT18=
EXTT19=
EXTT20=
EXTT21=
EXTT22=
EXTT23=
EXTT24=
PLAYORDER=
